<svg width="1227" height="14" viewBox="0 0 1227 14" fill="none" xmlns="http://www.w3.org/2000/svg">
<rect width="2" height="14" rx="1" fill="#595959" fill-opacity="0.5"/>
<rect x="5" y="5" width="2" height="4" rx="1" fill="#595959" fill-opacity="0.5"/>
<rect x="10" y="5" width="2" height="4" rx="1" fill="#595959" fill-opacity="0.5"/>
<rect x="15" y="5" width="2" height="4" rx="1" fill="#595959" fill-opacity="0.5"/>
<rect x="20" y="5" width="2" height="4" rx="1" fill="#595959" fill-opacity="0.5"/>
<rect x="25" width="2" height="14" rx="1" fill="#595959" fill-opacity="0.5"/>
<rect x="30" y="5" width="2" height="4" rx="1" fill="#595959" fill-opacity="0.5"/>
<rect x="35" y="5" width="2" height="4" rx="1" fill="#595959" fill-opacity="0.5"/>
<rect x="40" y="5" width="2" height="4" rx="1" fill="#595959" fill-opacity="0.5"/>
<rect x="45" y="5" width="2" height="4" rx="1" fill="#595959" fill-opacity="0.5"/>
<rect x="50" width="2" height="14" rx="1" fill="#595959" fill-opacity="0.5"/>
<rect x="55" y="5" width="2" height="4" rx="1" fill="#595959" fill-opacity="0.5"/>
<rect x="60" y="5" width="2" height="4" rx="1" fill="#595959" fill-opacity="0.5"/>
<rect x="65" y="5" width="2" height="4" rx="1" fill="#595959" fill-opacity="0.5"/>
<rect x="70" y="5" width="2" height="4" rx="1" fill="#595959" fill-opacity="0.5"/>
<rect x="75" width="2" height="14" rx="1" fill="#595959" fill-opacity="0.5"/>
<rect x="80" y="5" width="2" height="4" rx="1" fill="#595959" fill-opacity="0.5"/>
<rect x="85" y="5" width="2" height="4" rx="1" fill="#595959" fill-opacity="0.5"/>
<rect x="90" y="5" width="2" height="4" rx="1" fill="#595959" fill-opacity="0.5"/>
<rect x="95" y="5" width="2" height="4" rx="1" fill="#595959" fill-opacity="0.5"/>
<rect x="100" width="2" height="14" rx="1" fill="#595959" fill-opacity="0.5"/>
<rect x="105" y="5" width="2" height="4" rx="1" fill="#595959" fill-opacity="0.5"/>
<rect x="110" y="5" width="2" height="4" rx="1" fill="#595959" fill-opacity="0.5"/>
<rect x="115" y="5" width="2" height="4" rx="1" fill="#595959" fill-opacity="0.5"/>
<rect x="120" y="5" width="2" height="4" rx="1" fill="#595959" fill-opacity="0.5"/>
<rect x="125" width="2" height="14" rx="1" fill="#595959" fill-opacity="0.5"/>
<rect x="130" y="5" width="2" height="4" rx="1" fill="#595959" fill-opacity="0.5"/>
<rect x="135" y="5" width="2" height="4" rx="1" fill="#595959" fill-opacity="0.5"/>
<rect x="140" y="5" width="2" height="4" rx="1" fill="#595959" fill-opacity="0.5"/>
<rect x="145" y="5" width="2" height="4" rx="1" fill="#595959" fill-opacity="0.5"/>
<rect x="150" width="2" height="14" rx="1" fill="#595959" fill-opacity="0.5"/>
<rect x="155" y="5" width="2" height="4" rx="1" fill="#595959" fill-opacity="0.5"/>
<rect x="160" y="5" width="2" height="4" rx="1" fill="#595959" fill-opacity="0.5"/>
<rect x="165" y="5" width="2" height="4" rx="1" fill="#595959" fill-opacity="0.5"/>
<rect x="170" y="5" width="2" height="4" rx="1" fill="#595959" fill-opacity="0.5"/>
<rect x="175" width="2" height="14" rx="1" fill="#595959" fill-opacity="0.5"/>
<rect x="180" y="5" width="2" height="4" rx="1" fill="#595959" fill-opacity="0.5"/>
<rect x="185" y="5" width="2" height="4" rx="1" fill="#595959" fill-opacity="0.5"/>
<rect x="190" y="5" width="2" height="4" rx="1" fill="#595959" fill-opacity="0.5"/>
<rect x="195" y="5" width="2" height="4" rx="1" fill="#595959" fill-opacity="0.5"/>
<rect x="200" width="2" height="14" rx="1" fill="#595959" fill-opacity="0.5"/>
<rect x="205" y="5" width="2" height="4" rx="1" fill="#595959" fill-opacity="0.5"/>
<rect x="210" y="5" width="2" height="4" rx="1" fill="#595959" fill-opacity="0.5"/>
<rect x="215" y="5" width="2" height="4" rx="1" fill="#595959" fill-opacity="0.5"/>
<rect x="220" y="5" width="2" height="4" rx="1" fill="#595959" fill-opacity="0.5"/>
<rect x="225" width="2" height="14" rx="1" fill="#595959" fill-opacity="0.5"/>
<rect x="230" y="5" width="2" height="4" rx="1" fill="#595959" fill-opacity="0.5"/>
<rect x="235" y="5" width="2" height="4" rx="1" fill="#595959" fill-opacity="0.5"/>
<rect x="240" y="5" width="2" height="4" rx="1" fill="#595959" fill-opacity="0.5"/>
<rect x="245" y="5" width="2" height="4" rx="1" fill="#595959" fill-opacity="0.5"/>
<rect x="250" width="2" height="14" rx="1" fill="#595959" fill-opacity="0.5"/>
<rect x="255" y="5" width="2" height="4" rx="1" fill="#595959" fill-opacity="0.5"/>
<rect x="260" y="5" width="2" height="4" rx="1" fill="#595959" fill-opacity="0.5"/>
<rect x="265" y="5" width="2" height="4" rx="1" fill="#595959" fill-opacity="0.5"/>
<rect x="270" y="5" width="2" height="4" rx="1" fill="#595959" fill-opacity="0.5"/>
<rect x="275" width="2" height="14" rx="1" fill="#595959" fill-opacity="0.5"/>
<rect x="280" y="5" width="2" height="4" rx="1" fill="#595959" fill-opacity="0.5"/>
<rect x="285" y="5" width="2" height="4" rx="1" fill="#595959" fill-opacity="0.5"/>
<rect x="290" y="5" width="2" height="4" rx="1" fill="#595959" fill-opacity="0.5"/>
<rect x="295" y="5" width="2" height="4" rx="1" fill="#595959" fill-opacity="0.5"/>
<rect x="300" width="2" height="14" rx="1" fill="#595959" fill-opacity="0.5"/>
<rect x="305" y="5" width="2" height="4" rx="1" fill="#595959" fill-opacity="0.5"/>
<rect x="310" y="5" width="2" height="4" rx="1" fill="#595959" fill-opacity="0.5"/>
<rect x="315" y="5" width="2" height="4" rx="1" fill="#595959" fill-opacity="0.5"/>
<rect x="320" y="5" width="2" height="4" rx="1" fill="#595959" fill-opacity="0.5"/>
<rect x="325" width="2" height="14" rx="1" fill="#595959" fill-opacity="0.5"/>
<rect x="330" y="5" width="2" height="4" rx="1" fill="#595959" fill-opacity="0.5"/>
<rect x="335" y="5" width="2" height="4" rx="1" fill="#595959" fill-opacity="0.5"/>
<rect x="340" y="5" width="2" height="4" rx="1" fill="#595959" fill-opacity="0.5"/>
<rect x="345" y="5" width="2" height="4" rx="1" fill="#595959" fill-opacity="0.5"/>
<rect x="350" width="2" height="14" rx="1" fill="#595959" fill-opacity="0.5"/>
<rect x="355" y="5" width="2" height="4" rx="1" fill="#595959" fill-opacity="0.5"/>
<rect x="360" y="5" width="2" height="4" rx="1" fill="#595959" fill-opacity="0.5"/>
<rect x="365" y="5" width="2" height="4" rx="1" fill="#595959" fill-opacity="0.5"/>
<rect x="370" y="5" width="2" height="4" rx="1" fill="#595959" fill-opacity="0.5"/>
<rect x="375" width="2" height="14" rx="1" fill="#595959" fill-opacity="0.5"/>
<rect x="380" y="5" width="2" height="4" rx="1" fill="#595959" fill-opacity="0.5"/>
<rect x="385" y="5" width="2" height="4" rx="1" fill="#595959" fill-opacity="0.5"/>
<rect x="390" y="5" width="2" height="4" rx="1" fill="#595959" fill-opacity="0.5"/>
<rect x="395" y="5" width="2" height="4" rx="1" fill="#595959" fill-opacity="0.5"/>
<rect x="400" width="2" height="14" rx="1" fill="#595959" fill-opacity="0.5"/>
<rect x="405" y="5" width="2" height="4" rx="1" fill="#595959" fill-opacity="0.5"/>
<rect x="410" y="5" width="2" height="4" rx="1" fill="#595959" fill-opacity="0.5"/>
<rect x="415" y="5" width="2" height="4" rx="1" fill="#595959" fill-opacity="0.5"/>
<rect x="420" y="5" width="2" height="4" rx="1" fill="#595959" fill-opacity="0.5"/>
<rect x="425" width="2" height="14" rx="1" fill="#595959" fill-opacity="0.5"/>
<rect x="430" y="5" width="2" height="4" rx="1" fill="#595959" fill-opacity="0.5"/>
<rect x="435" y="5" width="2" height="4" rx="1" fill="#595959" fill-opacity="0.5"/>
<rect x="440" y="5" width="2" height="4" rx="1" fill="#595959" fill-opacity="0.5"/>
<rect x="445" y="5" width="2" height="4" rx="1" fill="#595959" fill-opacity="0.5"/>
<rect x="450" width="2" height="14" rx="1" fill="#595959" fill-opacity="0.5"/>
<rect x="455" y="5" width="2" height="4" rx="1" fill="#595959" fill-opacity="0.5"/>
<rect x="460" y="5" width="2" height="4" rx="1" fill="#595959" fill-opacity="0.5"/>
<rect x="465" y="5" width="2" height="4" rx="1" fill="#595959" fill-opacity="0.5"/>
<rect x="470" y="5" width="2" height="4" rx="1" fill="#595959" fill-opacity="0.5"/>
<rect x="475" width="2" height="14" rx="1" fill="#595959" fill-opacity="0.5"/>
<rect x="480" y="5" width="2" height="4" rx="1" fill="#595959" fill-opacity="0.5"/>
<rect x="485" y="5" width="2" height="4" rx="1" fill="#595959" fill-opacity="0.5"/>
<rect x="490" y="5" width="2" height="4" rx="1" fill="#595959" fill-opacity="0.5"/>
<rect x="495" y="5" width="2" height="4" rx="1" fill="#595959" fill-opacity="0.5"/>
<rect x="500" width="2" height="14" rx="1" fill="#595959" fill-opacity="0.5"/>
<rect x="505" y="5" width="2" height="4" rx="1" fill="#595959" fill-opacity="0.5"/>
<rect x="510" y="5" width="2" height="4" rx="1" fill="#595959" fill-opacity="0.5"/>
<rect x="515" y="5" width="2" height="4" rx="1" fill="#595959" fill-opacity="0.5"/>
<rect x="520" y="5" width="2" height="4" rx="1" fill="#595959" fill-opacity="0.5"/>
<rect x="525" width="2" height="14" rx="1" fill="#595959" fill-opacity="0.5"/>
<rect x="530" y="5" width="2" height="4" rx="1" fill="#595959" fill-opacity="0.5"/>
<rect x="535" y="5" width="2" height="4" rx="1" fill="#595959" fill-opacity="0.5"/>
<rect x="540" y="5" width="2" height="4" rx="1" fill="#595959" fill-opacity="0.5"/>
<rect x="545" y="5" width="2" height="4" rx="1" fill="#595959" fill-opacity="0.5"/>
<rect x="550" width="2" height="14" rx="1" fill="#595959" fill-opacity="0.5"/>
<rect x="555" y="5" width="2" height="4" rx="1" fill="#595959" fill-opacity="0.5"/>
<rect x="560" y="5" width="2" height="4" rx="1" fill="#595959" fill-opacity="0.5"/>
<rect x="565" y="5" width="2" height="4" rx="1" fill="#595959" fill-opacity="0.5"/>
<rect x="570" y="5" width="2" height="4" rx="1" fill="#595959" fill-opacity="0.5"/>
<rect x="575" width="2" height="14" rx="1" fill="#595959" fill-opacity="0.5"/>
<rect x="580" y="5" width="2" height="4" rx="1" fill="#595959" fill-opacity="0.5"/>
<rect x="585" y="5" width="2" height="4" rx="1" fill="#595959" fill-opacity="0.5"/>
<rect x="590" y="5" width="2" height="4" rx="1" fill="#595959" fill-opacity="0.5"/>
<rect x="595" y="5" width="2" height="4" rx="1" fill="#595959" fill-opacity="0.5"/>
<rect x="600" width="2" height="14" rx="1" fill="#595959" fill-opacity="0.5"/>
<rect x="605" y="5" width="2" height="4" rx="1" fill="#595959" fill-opacity="0.5"/>
<rect x="610" y="5" width="2" height="4" rx="1" fill="#595959" fill-opacity="0.5"/>
<rect x="615" y="5" width="2" height="4" rx="1" fill="#595959" fill-opacity="0.5"/>
<rect x="620" y="5" width="2" height="4" rx="1" fill="#595959" fill-opacity="0.5"/>
<rect x="625" width="2" height="14" rx="1" fill="#595959" fill-opacity="0.5"/>
<rect x="630" y="5" width="2" height="4" rx="1" fill="#595959" fill-opacity="0.5"/>
<rect x="635" y="5" width="2" height="4" rx="1" fill="#595959" fill-opacity="0.5"/>
<rect x="640" y="5" width="2" height="4" rx="1" fill="#595959" fill-opacity="0.5"/>
<rect x="645" y="5" width="2" height="4" rx="1" fill="#595959" fill-opacity="0.5"/>
<rect x="650" width="2" height="14" rx="1" fill="#595959" fill-opacity="0.5"/>
<rect x="655" y="5" width="2" height="4" rx="1" fill="#595959" fill-opacity="0.5"/>
<rect x="660" y="5" width="2" height="4" rx="1" fill="#595959" fill-opacity="0.5"/>
<rect x="665" y="5" width="2" height="4" rx="1" fill="#595959" fill-opacity="0.5"/>
<rect x="670" y="5" width="2" height="4" rx="1" fill="#595959" fill-opacity="0.5"/>
<rect x="675" width="2" height="14" rx="1" fill="#595959" fill-opacity="0.5"/>
<rect x="680" y="5" width="2" height="4" rx="1" fill="#595959" fill-opacity="0.5"/>
<rect x="685" y="5" width="2" height="4" rx="1" fill="#595959" fill-opacity="0.5"/>
<rect x="690" y="5" width="2" height="4" rx="1" fill="#595959" fill-opacity="0.5"/>
<rect x="695" y="5" width="2" height="4" rx="1" fill="#595959" fill-opacity="0.5"/>
<rect x="700" width="2" height="14" rx="1" fill="#595959" fill-opacity="0.5"/>
<rect x="705" y="5" width="2" height="4" rx="1" fill="#595959" fill-opacity="0.5"/>
<rect x="710" y="5" width="2" height="4" rx="1" fill="#595959" fill-opacity="0.5"/>
<rect x="715" y="5" width="2" height="4" rx="1" fill="#595959" fill-opacity="0.5"/>
<rect x="720" y="5" width="2" height="4" rx="1" fill="#595959" fill-opacity="0.5"/>
<rect x="725" width="2" height="14" rx="1" fill="#595959" fill-opacity="0.5"/>
<rect x="730" y="5" width="2" height="4" rx="1" fill="#595959" fill-opacity="0.5"/>
<rect x="735" y="5" width="2" height="4" rx="1" fill="#595959" fill-opacity="0.5"/>
<rect x="740" y="5" width="2" height="4" rx="1" fill="#595959" fill-opacity="0.5"/>
<rect x="745" y="5" width="2" height="4" rx="1" fill="#595959" fill-opacity="0.5"/>
<rect x="750" width="2" height="14" rx="1" fill="#595959" fill-opacity="0.5"/>
<rect x="755" y="5" width="2" height="4" rx="1" fill="#595959" fill-opacity="0.5"/>
<rect x="760" y="5" width="2" height="4" rx="1" fill="#595959" fill-opacity="0.5"/>
<rect x="765" y="5" width="2" height="4" rx="1" fill="#595959" fill-opacity="0.5"/>
<rect x="770" y="5" width="2" height="4" rx="1" fill="#595959" fill-opacity="0.5"/>
<rect x="775" width="2" height="14" rx="1" fill="#595959" fill-opacity="0.5"/>
<rect x="780" y="5" width="2" height="4" rx="1" fill="#595959" fill-opacity="0.5"/>
<rect x="785" y="5" width="2" height="4" rx="1" fill="#595959" fill-opacity="0.5"/>
<rect x="790" y="5" width="2" height="4" rx="1" fill="#595959" fill-opacity="0.5"/>
<rect x="795" y="5" width="2" height="4" rx="1" fill="#595959" fill-opacity="0.5"/>
<rect x="800" width="2" height="14" rx="1" fill="#595959" fill-opacity="0.5"/>
<rect x="805" y="5" width="2" height="4" rx="1" fill="#595959" fill-opacity="0.5"/>
<rect x="810" y="5" width="2" height="4" rx="1" fill="#595959" fill-opacity="0.5"/>
<rect x="815" y="5" width="2" height="4" rx="1" fill="#595959" fill-opacity="0.5"/>
<rect x="820" y="5" width="2" height="4" rx="1" fill="#595959" fill-opacity="0.5"/>
<rect x="825" width="2" height="14" rx="1" fill="#595959" fill-opacity="0.5"/>
<rect x="830" y="5" width="2" height="4" rx="1" fill="#595959" fill-opacity="0.5"/>
<rect x="835" y="5" width="2" height="4" rx="1" fill="#595959" fill-opacity="0.5"/>
<rect x="840" y="5" width="2" height="4" rx="1" fill="#595959" fill-opacity="0.5"/>
<rect x="845" y="5" width="2" height="4" rx="1" fill="#595959" fill-opacity="0.5"/>
<rect x="850" width="2" height="14" rx="1" fill="#595959" fill-opacity="0.5"/>
<rect x="855" y="5" width="2" height="4" rx="1" fill="#595959" fill-opacity="0.5"/>
<rect x="860" y="5" width="2" height="4" rx="1" fill="#595959" fill-opacity="0.5"/>
<rect x="865" y="5" width="2" height="4" rx="1" fill="#595959" fill-opacity="0.5"/>
<rect x="870" y="5" width="2" height="4" rx="1" fill="#595959" fill-opacity="0.5"/>
<rect x="875" width="2" height="14" rx="1" fill="#595959" fill-opacity="0.5"/>
<rect x="880" y="5" width="2" height="4" rx="1" fill="#595959" fill-opacity="0.5"/>
<rect x="885" y="5" width="2" height="4" rx="1" fill="#595959" fill-opacity="0.5"/>
<rect x="890" y="5" width="2" height="4" rx="1" fill="#595959" fill-opacity="0.5"/>
<rect x="895" y="5" width="2" height="4" rx="1" fill="#595959" fill-opacity="0.5"/>
<rect x="900" width="2" height="14" rx="1" fill="#595959" fill-opacity="0.5"/>
<rect x="905" y="5" width="2" height="4" rx="1" fill="#595959" fill-opacity="0.5"/>
<rect x="910" y="5" width="2" height="4" rx="1" fill="#595959" fill-opacity="0.5"/>
<rect x="915" y="5" width="2" height="4" rx="1" fill="#595959" fill-opacity="0.5"/>
<rect x="920" y="5" width="2" height="4" rx="1" fill="#595959" fill-opacity="0.5"/>
<rect x="925" width="2" height="14" rx="1" fill="#595959" fill-opacity="0.5"/>
<rect x="930" y="5" width="2" height="4" rx="1" fill="#595959" fill-opacity="0.5"/>
<rect x="935" y="5" width="2" height="4" rx="1" fill="#595959" fill-opacity="0.5"/>
<rect x="940" y="5" width="2" height="4" rx="1" fill="#595959" fill-opacity="0.5"/>
<rect x="945" y="5" width="2" height="4" rx="1" fill="#595959" fill-opacity="0.5"/>
<rect x="950" width="2" height="14" rx="1" fill="#595959" fill-opacity="0.5"/>
<rect x="955" y="5" width="2" height="4" rx="1" fill="#595959" fill-opacity="0.5"/>
<rect x="960" y="5" width="2" height="4" rx="1" fill="#595959" fill-opacity="0.5"/>
<rect x="965" y="5" width="2" height="4" rx="1" fill="#595959" fill-opacity="0.5"/>
<rect x="970" y="5" width="2" height="4" rx="1" fill="#595959" fill-opacity="0.5"/>
<rect x="975" width="2" height="14" rx="1" fill="#595959" fill-opacity="0.5"/>
<rect x="980" y="5" width="2" height="4" rx="1" fill="#595959" fill-opacity="0.5"/>
<rect x="985" y="5" width="2" height="4" rx="1" fill="#595959" fill-opacity="0.5"/>
<rect x="990" y="5" width="2" height="4" rx="1" fill="#595959" fill-opacity="0.5"/>
<rect x="995" y="5" width="2" height="4" rx="1" fill="#595959" fill-opacity="0.5"/>
<rect x="1000" width="2" height="14" rx="1" fill="#595959" fill-opacity="0.5"/>
<rect x="1005" y="5" width="2" height="4" rx="1" fill="#595959" fill-opacity="0.5"/>
<rect x="1010" y="5" width="2" height="4" rx="1" fill="#595959" fill-opacity="0.5"/>
<rect x="1015" y="5" width="2" height="4" rx="1" fill="#595959" fill-opacity="0.5"/>
<rect x="1020" y="5" width="2" height="4" rx="1" fill="#595959" fill-opacity="0.5"/>
<rect x="1025" width="2" height="14" rx="1" fill="#595959" fill-opacity="0.5"/>
<rect x="1030" y="5" width="2" height="4" rx="1" fill="#595959" fill-opacity="0.5"/>
<rect x="1035" y="5" width="2" height="4" rx="1" fill="#595959" fill-opacity="0.5"/>
<rect x="1040" y="5" width="2" height="4" rx="1" fill="#595959" fill-opacity="0.5"/>
<rect x="1045" y="5" width="2" height="4" rx="1" fill="#595959" fill-opacity="0.5"/>
<rect x="1050" width="2" height="14" rx="1" fill="#595959" fill-opacity="0.5"/>
<rect x="1055" y="5" width="2" height="4" rx="1" fill="#595959" fill-opacity="0.5"/>
<rect x="1060" y="5" width="2" height="4" rx="1" fill="#595959" fill-opacity="0.5"/>
<rect x="1065" y="5" width="2" height="4" rx="1" fill="#595959" fill-opacity="0.5"/>
<rect x="1070" y="5" width="2" height="4" rx="1" fill="#595959" fill-opacity="0.5"/>
<rect x="1075" width="2" height="14" rx="1" fill="#595959" fill-opacity="0.5"/>
<rect x="1080" y="5" width="2" height="4" rx="1" fill="#595959" fill-opacity="0.5"/>
<rect x="1085" y="5" width="2" height="4" rx="1" fill="#595959" fill-opacity="0.5"/>
<rect x="1090" y="5" width="2" height="4" rx="1" fill="#595959" fill-opacity="0.5"/>
<rect x="1095" y="5" width="2" height="4" rx="1" fill="#595959" fill-opacity="0.5"/>
<rect x="1100" width="2" height="14" rx="1" fill="#595959" fill-opacity="0.5"/>
<rect x="1105" y="5" width="2" height="4" rx="1" fill="#595959" fill-opacity="0.5"/>
<rect x="1110" y="5" width="2" height="4" rx="1" fill="#595959" fill-opacity="0.5"/>
<rect x="1115" y="5" width="2" height="4" rx="1" fill="#595959" fill-opacity="0.5"/>
<rect x="1120" y="5" width="2" height="4" rx="1" fill="#595959" fill-opacity="0.5"/>
<rect x="1125" width="2" height="14" rx="1" fill="#595959" fill-opacity="0.5"/>
<rect x="1130" y="5" width="2" height="4" rx="1" fill="#595959" fill-opacity="0.5"/>
<rect x="1135" y="5" width="2" height="4" rx="1" fill="#595959" fill-opacity="0.5"/>
<rect x="1140" y="5" width="2" height="4" rx="1" fill="#595959" fill-opacity="0.5"/>
<rect x="1145" y="5" width="2" height="4" rx="1" fill="#595959" fill-opacity="0.5"/>
<rect x="1150" width="2" height="14" rx="1" fill="#595959" fill-opacity="0.5"/>
<rect x="1155" y="5" width="2" height="4" rx="1" fill="#595959" fill-opacity="0.5"/>
<rect x="1160" y="5" width="2" height="4" rx="1" fill="#595959" fill-opacity="0.5"/>
<rect x="1165" y="5" width="2" height="4" rx="1" fill="#595959" fill-opacity="0.5"/>
<rect x="1170" y="5" width="2" height="4" rx="1" fill="#595959" fill-opacity="0.5"/>
<rect x="1175" width="2" height="14" rx="1" fill="#595959" fill-opacity="0.5"/>
<rect x="1180" y="5" width="2" height="4" rx="1" fill="#595959" fill-opacity="0.5"/>
<rect x="1185" y="5" width="2" height="4" rx="1" fill="#595959" fill-opacity="0.5"/>
<rect x="1190" y="5" width="2" height="4" rx="1" fill="#595959" fill-opacity="0.5"/>
<rect x="1195" y="5" width="2" height="4" rx="1" fill="#595959" fill-opacity="0.5"/>
<rect x="1200" width="2" height="14" rx="1" fill="#595959" fill-opacity="0.5"/>
<rect x="1205" y="5" width="2" height="4" rx="1" fill="#595959" fill-opacity="0.5"/>
<rect x="1210" y="5" width="2" height="4" rx="1" fill="#595959" fill-opacity="0.5"/>
<rect x="1215" y="5" width="2" height="4" rx="1" fill="#595959" fill-opacity="0.5"/>
<rect x="1220" y="5" width="2" height="4" rx="1" fill="#595959" fill-opacity="0.5"/>
<rect x="1225" width="2" height="14" rx="1" fill="#595959" fill-opacity="0.5"/>
</svg>
